<?xml version="1.0" encoding="utf-8"?>
<!-- Generator: Adobe Illustrator 22.1.0, SVG Export Plug-In . SVG Version: 6.00 Build 0)  -->
<svg version="1.1" id="Layer_1" xmlns="http://www.w3.org/2000/svg" xmlns:xlink="http://www.w3.org/1999/xlink" x="0px" y="0px"
	 viewBox="0 0 1920 872" style="enable-background:new 0 0 1920 872;" xml:space="preserve">
<style type="text/css">
	.st0{enable-background:new    ;}
	.st1{fill:#FFFFFF;}
</style>
<g class="st0">
	<path class="st1" d="M372.4,857.6V653.2H0V557L391.2,3.3h86.2V557h114.9v96.1H477.4v204.5H372.4z M372.4,557V170.3L103.3,557H372.4
		z"/>
	<path class="st1" d="M699.2,436.3c0-101,10.4-182.3,31.2-244C751.1,130.5,782,83,823,49.8C864,16.6,915.5,0,977.7,0
		c45.8,0,86.1,9.2,120.9,27.7c34.7,18.4,63.3,45.1,85.7,79.8c22.3,34.8,39.9,77.1,52.7,127s19.2,117.2,19.2,201.8
		c0,100.2-10.3,181.2-30.9,242.9c-20.6,61.7-51.4,109.3-92.4,142.7c-41,33.4-92.7,50.1-155.3,50.1c-82.4,0-147-29.3-194-88
		C727.3,712.6,699.2,596.7,699.2,436.3z M807.5,436.5c0,140.5,16.4,233.8,49.1,280c32.7,46.2,73.1,69.3,121.1,69.3
		c48,0,88.4-23.2,121.1-69.6c32.7-46.4,49.1-139.6,49.1-279.7c0-140.5-16.3-233.8-49-280s-73.4-69.3-122.4-69.3
		c-48,0-86.5,20.4-115.3,61.1C825.4,200.4,807.5,296.5,807.5,436.5z"/>
	<path class="st1" d="M1700.1,857.6V653.2h-372.4V557L1718.9,3.3h86.2V557H1920v96.1h-114.9v204.5H1700.1z M1700.1,557V170.3
		L1430.9,557H1700.1z"/>
</g>
</svg>
